<?xml version="1.0" encoding="UTF-8" standalone="no"?>
<svg
   xmlns:dc="http://purl.org/dc/elements/1.1/"
   xmlns:cc="http://creativecommons.org/ns#"
   xmlns:rdf="http://www.w3.org/1999/02/22-rdf-syntax-ns#"
   xmlns:svg="http://www.w3.org/2000/svg"
   xmlns="http://www.w3.org/2000/svg"
   xmlns:xlink="http://www.w3.org/1999/xlink"
   xmlns:sodipodi="http://sodipodi.sourceforge.net/DTD/sodipodi-0.dtd"
   xmlns:inkscape="http://www.inkscape.org/namespaces/inkscape"
   width="128"
   height="128"
   id="svg2"
   version="1.1"
   sodipodi:docname="otr-verwaltung3p_icon.svg"
   inkscape:version="0.92.2 2405546, 2018-03-11">
  <sodipodi:namedview
     pagecolor="#ffffff"
     bordercolor="#666666"
     borderopacity="1"
     objecttolerance="10"
     gridtolerance="10"
     guidetolerance="10"
     inkscape:pageopacity="0"
     inkscape:pageshadow="2"
     inkscape:window-width="1920"
     inkscape:window-height="1028"
     id="namedview116"
     showgrid="false"
     inkscape:zoom="5.2149125"
     inkscape:cx="135.93629"
     inkscape:cy="43.131129"
     inkscape:window-x="0"
     inkscape:window-y="30"
     inkscape:window-maximized="1"
     inkscape:current-layer="svg2" />
  <defs
     id="defs4">
    <linearGradient
       id="linearGradient5403">
      <stop
         style="stop-color:#000000;stop-opacity:1"
         offset="0"
         id="stop5405" />
      <stop
         style="stop-color:#000000;stop-opacity:1"
         offset="1"
         id="stop5407" />
    </linearGradient>
    <linearGradient
       id="linearGradient5330">
      <stop
         id="stop5332"
         offset="0"
         style="stop-color:#2e3436;stop-opacity:1" />
      <stop
         id="stop5334"
         offset="1"
         style="stop-color:#000000;stop-opacity:1" />
    </linearGradient>
    <linearGradient
       id="linearGradient4040">
      <stop
         style="stop-color:#000000;stop-opacity:1;"
         offset="0"
         id="stop4042" />
      <stop
         id="stop4048"
         offset="0.5"
         style="stop-color:#4c4c4c;stop-opacity:1;" />
      <stop
         style="stop-color:#000000;stop-opacity:1;"
         offset="1"
         id="stop4044" />
    </linearGradient>
    <linearGradient
       id="linearGradient3891">
      <stop
         style="stop-color:#ffffff;stop-opacity:1;"
         offset="0"
         id="stop3893" />
      <stop
         style="stop-color:#ffffff;stop-opacity:0;"
         offset="1"
         id="stop3895" />
    </linearGradient>
    <linearGradient
       id="linearGradient3813">
      <stop
         id="stop3815"
         offset="0"
         style="stop-color:#00d5ff;stop-opacity:1" />
      <stop
         id="stop3817"
         offset="1"
         style="stop-color:#00056b;stop-opacity:1" />
    </linearGradient>
    <linearGradient
       id="linearGradient3934">
      <stop
         id="stop3936"
         offset="0"
         style="stop-color:#ffffff;stop-opacity:1;" />
      <stop
         id="stop3938"
         offset="1"
         style="stop-color:#ffffff;stop-opacity:0;" />
    </linearGradient>
    <linearGradient
       id="linearGradient3879">
      <stop
         id="stop3881"
         offset="0"
         style="stop-color:#ffffff;stop-opacity:1;" />
      <stop
         id="stop3883"
         offset="1"
         style="stop-color:#ffffff;stop-opacity:0;" />
    </linearGradient>
    <linearGradient
       gradientUnits="userSpaceOnUse"
       y2="128"
       x2="112"
       y1="36"
       x1="112"
       id="linearGradient3885"
       xlink:href="#linearGradient3879" />
    <linearGradient
       gradientUnits="userSpaceOnUse"
       y2="148"
       x2="172"
       y1="16"
       x1="160"
       id="linearGradient3796-7"
       xlink:href="#linearGradient3790-8" />
    <linearGradient
       id="linearGradient3790-8">
      <stop
         id="stop3792-7"
         offset="0"
         style="stop-color:#1a1a1a;stop-opacity:1" />
      <stop
         id="stop3794-7"
         offset="1"
         style="stop-color:#000000;stop-opacity:0;" />
    </linearGradient>
    <linearGradient
       gradientTransform="translate(0,796.36218)"
       y2="120"
       x2="280"
       y1="16"
       x1="232"
       gradientUnits="userSpaceOnUse"
       id="linearGradient3924"
       xlink:href="#linearGradient3790-8" />
    <linearGradient
       gradientUnits="userSpaceOnUse"
       y2="892.36218"
       x2="120"
       y1="940.36218"
       x1="120"
       id="linearGradient3940"
       xlink:href="#linearGradient3934" />
    <linearGradient
       y2="104"
       x2="112"
       y1="36"
       x1="112"
       gradientUnits="userSpaceOnUse"
       id="linearGradient3942"
       xlink:href="#linearGradient3879" />
    <linearGradient
       gradientUnits="userSpaceOnUse"
       y2="192"
       x2="216"
       y1="8"
       x1="72"
       id="linearGradient3767-5"
       xlink:href="#linearGradient3761-4" />
    <linearGradient
       id="linearGradient3761-4">
      <stop
         id="stop3763-3"
         offset="0"
         style="stop-color:#888a85;stop-opacity:1;" />
      <stop
         id="stop3765-5"
         offset="1"
         style="stop-color:#888a85;stop-opacity:0;" />
    </linearGradient>
    <linearGradient
       gradientTransform="translate(0,796.36218)"
       xlink:href="#linearGradient3761-4"
       id="linearGradient3959"
       gradientUnits="userSpaceOnUse"
       x1="72"
       y1="8"
       x2="216"
       y2="192" />
    <linearGradient
       y2="192"
       x2="216"
       y1="8"
       x1="72"
       gradientUnits="userSpaceOnUse"
       id="linearGradient3981"
       xlink:href="#linearGradient3761-4" />
    <linearGradient
       gradientUnits="userSpaceOnUse"
       y2="148"
       x2="172"
       y1="16"
       x1="160"
       id="linearGradient3796-4"
       xlink:href="#linearGradient3790-6" />
    <linearGradient
       id="linearGradient3790-6">
      <stop
         id="stop3792-8"
         offset="0"
         style="stop-color:#1a1a1a;stop-opacity:1" />
      <stop
         id="stop3794-6"
         offset="1"
         style="stop-color:#000000;stop-opacity:0;" />
    </linearGradient>
    <radialGradient
       gradientUnits="userSpaceOnUse"
       gradientTransform="matrix(2.614786,0,0,2.2412451,-142.10117,47.113644)"
       r="64.25"
       fy="-31.729527"
       fx="66.583336"
       cy="-31.729527"
       cx="66.583336"
       id="radialGradient5460"
       xlink:href="#linearGradient5454" />
    <linearGradient
       id="linearGradient5454">
      <stop
         id="stop5456"
         offset="0"
         style="stop-color:#dfdfdf;stop-opacity:1;" />
      <stop
         id="stop5458"
         offset="1"
         style="stop-color:#000000;stop-opacity:1;" />
    </linearGradient>
    <radialGradient
       gradientUnits="userSpaceOnUse"
       gradientTransform="matrix(3.446154,4.3205616e-7,-4.0119498e-7,3.2,-176.12309,-15.510237)"
       r="16.25"
       fy="7.3469391"
       fx="72"
       cy="7.3469391"
       cx="72"
       id="radialGradient6903"
       xlink:href="#linearGradient8794" />
    <linearGradient
       id="linearGradient8794">
      <stop
         id="stop8796"
         offset="0"
         style="stop-color:#ffffff;stop-opacity:1;" />
      <stop
         style="stop-color:#e4e4e4;stop-opacity:1;"
         offset="0.5"
         id="stop4469" />
      <stop
         id="stop8798"
         offset="1"
         style="stop-color:#cacaca;stop-opacity:1;" />
    </linearGradient>
    <linearGradient
       gradientUnits="userSpaceOnUse"
       y2="20"
       x2="88"
       y1="-4"
       x1="40"
       id="linearGradient6911"
       xlink:href="#linearGradient4270-9-28" />
    <linearGradient
       id="linearGradient4270-9-28">
      <stop
         id="stop4272-5-33"
         offset="0"
         style="stop-color:#f9f9f9;stop-opacity:0.50196081;" />
      <stop
         style="stop-color:#7d7d7d;stop-opacity:0.50196081;"
         offset="0.25"
         id="stop5033-81" />
      <stop
         style="stop-color:#808080;stop-opacity:0.50196081;"
         offset="0.5"
         id="stop4278-7-4" />
      <stop
         id="stop5035-3"
         offset="0.75"
         style="stop-color:#ffffff;stop-opacity:0.50196081;" />
      <stop
         id="stop4274-4-83"
         offset="1"
         style="stop-color:#000000;stop-opacity:0.50196081;" />
    </linearGradient>
    <radialGradient
       gradientUnits="userSpaceOnUse"
       gradientTransform="matrix(1.2121212,0,0,0.21212121,-13.575759,0.7878793)"
       r="16.5"
       fy="15.142857"
       fx="64"
       cy="15.142857"
       cx="64"
       id="radialGradient6925"
       xlink:href="#linearGradient6913" />
    <linearGradient
       id="linearGradient6913">
      <stop
         id="stop6915"
         offset="0"
         style="stop-color:#000000;stop-opacity:1;" />
      <stop
         id="stop6917"
         offset="1"
         style="stop-color:#000000;stop-opacity:0;" />
    </linearGradient>
    <radialGradient
       gradientUnits="userSpaceOnUse"
       gradientTransform="matrix(3.0843369,1.8209722e-8,1.0668126e-8,3.7291227,-199.23135,-41.853558)"
       r="62.25"
       fy="24.095093"
       fx="90.532051"
       cy="24.095093"
       cx="90.532051"
       id="radialGradient5444"
       xlink:href="#linearGradient8794" />
    <linearGradient
       id="linearGradient6964">
      <stop
         id="stop6966"
         offset="0"
         style="stop-color:#ffffff;stop-opacity:1;" />
      <stop
         style="stop-color:#e4e4e4;stop-opacity:1;"
         offset="0.5"
         id="stop6968" />
      <stop
         id="stop6970"
         offset="1"
         style="stop-color:#cacaca;stop-opacity:1;" />
    </linearGradient>
    <linearGradient
       gradientUnits="userSpaceOnUse"
       y2="84"
       x2="128"
       y1="16"
       x1="0"
       id="linearGradient5452"
       xlink:href="#linearGradient4270-9-9" />
    <linearGradient
       id="linearGradient4270-9-9">
      <stop
         id="stop4272-5-10"
         offset="0"
         style="stop-color:#f9f9f9;stop-opacity:0.50196081;" />
      <stop
         style="stop-color:#7d7d7d;stop-opacity:0.50196081;"
         offset="0.25"
         id="stop5033-8" />
      <stop
         style="stop-color:#808080;stop-opacity:0.50196081;"
         offset="0.5"
         id="stop4278-7-50" />
      <stop
         id="stop5035-4"
         offset="0.75"
         style="stop-color:#ffffff;stop-opacity:0.50196081;" />
      <stop
         id="stop4274-4-85"
         offset="1"
         style="stop-color:#000000;stop-opacity:0.50196081;" />
    </linearGradient>
    <radialGradient
       xlink:href="#linearGradient8794"
       id="radialGradient6984"
       gradientUnits="userSpaceOnUse"
       gradientTransform="matrix(3.0843369,1.8209722e-8,1.0668126e-8,3.7291227,-199.23135,-41.853558)"
       cx="90.532051"
       cy="24.095093"
       fx="90.532051"
       fy="24.095093"
       r="62.25" />
    <linearGradient
       xlink:href="#linearGradient4270-9-9"
       id="linearGradient6986"
       gradientUnits="userSpaceOnUse"
       x1="0"
       y1="16"
       x2="128"
       y2="84" />
    <radialGradient
       r="62.25"
       fy="24.095093"
       fx="90.532051"
       cy="24.095093"
       cx="90.532051"
       gradientTransform="matrix(3.0843369,1.8209722e-8,1.0668126e-8,3.7291227,-311.23135,826.50862)"
       gradientUnits="userSpaceOnUse"
       id="radialGradient7072"
       xlink:href="#linearGradient8794" />
    <linearGradient
       gradientTransform="translate(-112,868.36218)"
       y2="84"
       x2="128"
       y1="16"
       x1="0"
       gradientUnits="userSpaceOnUse"
       id="linearGradient7074"
       xlink:href="#linearGradient4270-9-9" />
    <radialGradient
       r="16.5"
       fy="15.142857"
       fx="64"
       cy="15.142857"
       cx="64"
       gradientTransform="matrix(1.2121212,0,0,0.21212121,-125.57576,949.15006)"
       gradientUnits="userSpaceOnUse"
       id="radialGradient7077"
       xlink:href="#linearGradient6913" />
    <radialGradient
       r="16.25"
       fy="7.3469391"
       fx="72"
       cy="7.3469391"
       cx="72"
       gradientTransform="matrix(3.446154,4.3205616e-7,-4.0119498e-7,3.2,-288.12309,932.85194)"
       gradientUnits="userSpaceOnUse"
       id="radialGradient7080"
       xlink:href="#linearGradient8794" />
    <linearGradient
       gradientTransform="translate(-112,948.36218)"
       y2="20"
       x2="88"
       y1="-4"
       x1="40"
       gradientUnits="userSpaceOnUse"
       id="linearGradient7082"
       xlink:href="#linearGradient4270-9-28" />
    <radialGradient
       r="64.25"
       fy="-31.729527"
       fx="66.583336"
       cy="-31.729527"
       cx="66.583336"
       gradientTransform="matrix(2.614786,0,0,2.2412451,-254.10117,995.47582)"
       gradientUnits="userSpaceOnUse"
       id="radialGradient7085"
       xlink:href="#linearGradient5454" />
    <radialGradient
       xlink:href="#linearGradient3813"
       id="radialGradient3872"
       cx="-43.501907"
       cy="63.483326"
       fx="-43.501907"
       fy="63.483326"
       r="60"
       gradientTransform="matrix(-0.93333338,5.6306208e-8,-4.0218721e-8,-0.66666669,27.39822,110.32222)"
       gradientUnits="userSpaceOnUse" />
    <linearGradient
       xlink:href="#linearGradient4270-9-28"
       id="linearGradient3880"
       x1="-8"
       y1="0"
       x2="136"
       y2="120"
       gradientUnits="userSpaceOnUse"
       gradientTransform="matrix(-1.3550094,0,0,-1.3550094,-32.520013,153.03382)" />
    <radialGradient
       xlink:href="#linearGradient3891"
       id="radialGradient3897"
       cx="32.783646"
       cy="77.210121"
       fx="32.783646"
       fy="77.210121"
       r="64"
       gradientTransform="matrix(-2.879395,0,0,-1.8631379,29.356825,177.64612)"
       gradientUnits="userSpaceOnUse" />
    <radialGradient
       xlink:href="#linearGradient4202"
       id="radialGradient4101"
       cx="56.411762"
       cy="41.235294"
       fx="56.411762"
       fy="41.235294"
       r="64.5"
       gradientTransform="matrix(8.434109,1.2330991e-7,-1.233099e-7,8.4341084,-475.78296,-475.78296)"
       gradientUnits="userSpaceOnUse" />
    <linearGradient
       id="linearGradient4202">
      <stop
         id="stop4204"
         offset="0"
         style="stop-color:#838383;stop-opacity:1;" />
      <stop
         style="stop-color:#f7f7f7;stop-opacity:1;"
         offset="0.09090909"
         id="stop4219" />
      <stop
         style="stop-color:#969696;stop-opacity:1;"
         offset="0.18181819"
         id="stop4216" />
      <stop
         style="stop-color:#cfcfcf;stop-opacity:1;"
         offset="0.29411766"
         id="stop4214" />
      <stop
         style="stop-color:#5c5c5c;stop-opacity:1;"
         offset="0.41176471"
         id="stop4212" />
      <stop
         style="stop-color:#e4e4e4;stop-opacity:1;"
         offset="0.52941179"
         id="stop4210" />
      <stop
         style="stop-color:#ffffff;stop-opacity:1;"
         offset="0.70588237"
         id="stop4206" />
      <stop
         id="stop4208"
         offset="1"
         style="stop-color:#7c7c7c;stop-opacity:1;" />
    </linearGradient>
    <radialGradient
       gradientUnits="userSpaceOnUse"
       gradientTransform="matrix(1.1737147,-0.19561787,0.55515629,3.330959,-568.876,-3205.6799)"
       r="20.447904"
       fy="988.41553"
       fx="115.99999"
       cy="988.41553"
       cx="115.99999"
       id="radialGradient5336"
       xlink:href="#linearGradient5330" />
    <radialGradient
       r="64"
       fy="77.210121"
       fx="32.783646"
       cy="77.210121"
       cx="32.783646"
       gradientTransform="matrix(-2.879395,0,0,-1.8631379,29.356825,177.64612)"
       gradientUnits="userSpaceOnUse"
       id="radialGradient5382"
       xlink:href="#linearGradient3891" />
    <radialGradient
       gradientUnits="userSpaceOnUse"
       gradientTransform="matrix(1,0,0,1.2217305,0,-1143.5122)"
       r="46.07032"
       fy="975.26599"
       fx="-152"
       cy="975.26599"
       cx="-152"
       id="radialGradient5401"
       xlink:href="#linearGradient5403" />
    <radialGradient
       inkscape:collect="always"
       xlink:href="#linearGradient3891"
       id="radialGradient3821"
       gradientUnits="userSpaceOnUse"
       gradientTransform="matrix(-2.879395,0,0,-1.8631379,29.356825,177.64612)"
       cx="32.783646"
       cy="77.210121"
       fx="32.783646"
       fy="77.210121"
       r="64" />
  </defs>
  <metadata
     id="metadata7">
    <rdf:RDF>
      <cc:Work
         rdf:about="">
        <dc:format>image/svg+xml</dc:format>
        <dc:type
           rdf:resource="http://purl.org/dc/dcmitype/StillImage" />
        <dc:title></dc:title>
      </cc:Work>
    </rdf:RDF>
  </metadata>
  <path
     inkscape:connector-curvature="0"
     style="fill:url(#radialGradient5336);fill-opacity:1;fill-rule:evenodd;stroke:none;stroke-width:1px;stroke-linecap:butt;stroke-linejoin:miter;stroke-opacity:1"
     d="m 89.978832,7.88422 c 5.420037,0 34.137508,56.80308 36.427978,63.61891 2.22908,6.63319 2.25851,37.04799 -0.80443,38.17089 -9.55529,3.5032 -34.012086,10.2852 -37.135836,10.6095 0,0 -3.90775,-112.3993 1.512288,-112.3993 z"
     id="path5281" />
  <path
     inkscape:connector-curvature="0"
     id="rect3094"
     d="m 2.0754529,33.18253 c 0,0 86.0840141,-25.31876 86.0840141,-25.31876 2.193458,-0.64512 3.981385,0.85962 3.981385,3.38183 0,0 0,104.71512 0,104.71512 0,2.5223 -1.787927,4.4477 -3.981385,4.3187 0,0 -86.0840141,-5.0638 -86.0840141,-5.0638 -1.15427971,-0.068 -2.0752403,-1.5725 -2.0752403,-3.3741 0,0 0,-74.79654 0,-74.79654 0,-1.80162 0.92096059,-3.52289 2.0752403,-3.86245 0,0 0,0 0,0"
     style="fill:url(#radialGradient5401);fill-opacity:1;stroke:#ffffff;stroke-width:0.5;stroke-miterlimit:4;stroke-dasharray:none;stroke-opacity:0.31168829" />
  <path
     inkscape:connector-curvature="0"
     style="fill:#000000;fill-opacity:1;stroke:none;stroke-width:1.35500944;stroke-miterlimit:4;stroke-dasharray:none"
     d="m 4.1884233,35.87222 c 0,0 80.0867647,-22.42418 80.0867647,-22.42418 2.140107,-0.59932 3.884279,0.91788 3.884279,3.40893 0,0 0,80.93935 0,80.93935 0,2.4911 -1.744172,4.4925 -3.884279,4.4874 0,0 -80.0867647,-0.1884 -80.0867647,-0.1884 -1.175308,0 -2.1129704,-1.4684 -2.1129704,-3.2863 0,0 0,-59.06377 0,-59.06377 0,-1.81788 0.9376624,-3.5439 2.1129704,-3.87303 0,0 0,0 0,0"
     id="path5362" />
  <path
     inkscape:connector-curvature="0"
     id="rect3096"
     d="m 4.1884233,35.87222 c 0,0 80.0867647,-22.42418 80.0867647,-22.42418 2.140107,-0.59932 3.884279,0.91788 3.884279,3.40893 0,0 0,80.93935 0,80.93935 0,2.4911 -1.744172,4.4925 -3.884279,4.4874 0,0 -80.0867647,-0.1884 -80.0867647,-0.1884 -1.175308,0 -2.1129704,-1.4684 -2.1129704,-3.2863 0,0 0,-59.06377 0,-59.06377 0,-1.81788 0.9376624,-3.5439 2.1129704,-3.87303 0,0 0,0 0,0"
     style="fill:url(#radialGradient3872);fill-opacity:1;stroke:url(#linearGradient3880);stroke-width:1.35500944;stroke-miterlimit:4;stroke-dasharray:none" />
  <path
     inkscape:connector-curvature="0"
     style="fill:url(#radialGradient5382);fill-opacity:1;stroke:none"
     d="M 60.548828,21.117188 4.1875,36.699219 c -0.8917371,0.24648 -1.5878906,1.52563 -1.5878906,2.90625 v 44.166015 c 3.5631568,1.087751 7.4809386,1.577153 11.7011716,1.292969 23.935242,-1.6122 47.072266,-26.505469 47.072266,-55.292969 0,-3.029785 -0.292709,-5.917034 -0.824219,-8.654296 z"
     id="path5380" />
  <path
     inkscape:connector-curvature="0"
     id="path3886"
     d="m 2.0754529,33.18253 c -1.15427971,0.33956 -2.0752403,2.06083 -2.0752403,3.86245 0,0 0,45.09644 0,45.09644 0.50539547,0.3901 1.0227353,0.7798 1.5529329,1.1481 0,0 0,-43.40539 0,-43.40539 0,-2.25311 1.1770858,-4.42613 2.6352778,-4.83968 0,0 80.0867647,-22.70684 80.0867647,-22.70684 2.662813,-0.75502 4.87038,1.15311 4.87038,4.25716 0,0 0,42.77977 0,42.77977 1.062032,-1.46421 2.064514,-2.96044 2.995284,-4.48578 0,0 0,-43.64316 0,-43.64316 0,-2.52221 -1.787927,-4.02695 -3.981385,-3.38183 0,0 -86.0840141,25.31876 -86.0840141,25.31876 0,0 0,0 0,0 m 2.1129704,3.5176 c -0.8917371,0.24648 -1.5883054,1.52493 -1.5883054,2.90555 0,0 0,44.37214 0,44.37214 7.3913703,4.7869 17.1682501,7.5608 28.7013401,7.0995 20.887547,-0.8355 42.186749,-11.9545 55.877975,-29.13184 0,0 0,-44.82794 0,-44.82794 0,-1.88198 -1.285124,-3.00677 -2.904245,-2.55907 0,0 -80.0867647,22.14166 -80.0867647,22.14166 0,0 0,0 0,0"
     style="fill:url(#radialGradient3821);fill-opacity:1;stroke:none" />
  <path
     inkscape:connector-curvature="0"
     style="opacity:0.25;fill:#ffffff;fill-opacity:1;stroke:none"
     d="M 65.941406,19.626953 4.1875,36.699219 c -0.8917371,0.24648 -1.5878906,1.52563 -1.5878906,2.90625 v 44.373047 c 7.3913703,4.7869 17.1680816,7.560909 28.7011716,7.099609 9.005893,-0.360235 18.087365,-2.637446 26.603516,-6.482422 6.084442,-12.818611 9.841797,-28.712612 9.841797,-45.740234 0,-6.822371 -0.647584,-13.259462 -1.804688,-19.228516 z"
     id="path4119" />
  <path
     inkscape:connector-curvature="0"
     id="path4396"
     d="m 86.205412,111.22632 c 0,0.5927 -0.204478,1.154 -0.567798,1.5599 -0.362485,0.4049 -0.852795,0.6212 -1.362426,0.602 -0.507984,-0.019 -0.993625,-0.2707 -1.350728,-0.6985 -0.356292,-0.427 -0.5561,-0.9953 -0.5561,-1.5807 0,-0.5855 0.199808,-1.1416 0.5561,-1.5467 0.357103,-0.406 0.842744,-0.6278 1.350728,-0.6159 0.509631,0.012 0.999941,0.2583 1.362426,0.6854 0.36332,0.4281 0.567798,1.0019 0.567798,1.5945 0,0 0,0 0,0"
     style="opacity:0.5;fill:none;fill-opacity:1;stroke:#ffffff;stroke-width:1.35500944;stroke-linecap:butt;stroke-linejoin:round;stroke-miterlimit:4;stroke-dasharray:none;stroke-opacity:1" />
  <path
     inkscape:connector-curvature="0"
     id="circle4398"
     d="m 78.623214,110.99442 c 0,0.5785 -0.194803,1.1265 -0.540947,1.523 -0.345368,0.3955 -0.812555,0.6071 -1.298187,0.5888 -0.484101,-0.018 -0.946944,-0.2634 -1.287306,-0.6808 -0.339606,-0.4165 -0.530063,-0.9712 -0.530063,-1.5428 0,-0.5716 0.190457,-1.1147 0.530063,-1.5104 0.340362,-0.3966 0.803205,-0.6134 1.287306,-0.6021 0.485632,0.011 0.952819,0.2516 1.298187,0.6683 0.346144,0.4176 0.540947,0.9776 0.540947,1.556 0,0 0,0 0,0"
     style="opacity:0.5;fill:none;fill-opacity:1;stroke:#ffffff;stroke-width:1.35500944;stroke-linecap:butt;stroke-linejoin:round;stroke-miterlimit:4;stroke-dasharray:none;stroke-opacity:1" />
  <path
     inkscape:connector-curvature="0"
     id="circle4400"
     d="m 71.395739,110.77342 c 0,0.5649 -0.185799,1.1003 -0.515956,1.4877 -0.329437,0.3866 -0.775098,0.5936 -1.238388,0.5762 -0.461863,-0.017 -0.903477,-0.2565 -1.228247,-0.6639 -0.324065,-0.4066 -0.505815,-0.9484 -0.505815,-1.5068 0,-0.5583 0.18175,-1.0889 0.505815,-1.4757 0.32477,-0.3876 0.766384,-0.5997 1.228247,-0.5888 0.46329,0.011 0.908951,0.2452 1.238388,0.6519 0.330157,0.4077 0.515956,0.9544 0.515956,1.5194 0,0 0,0 0,0"
     style="opacity:0.5;fill:none;fill-opacity:1;stroke:#ffffff;stroke-width:1.35500944;stroke-linecap:butt;stroke-linejoin:round;stroke-miterlimit:4;stroke-dasharray:none;stroke-opacity:1" />
  <path
     inkscape:connector-curvature="0"
     d="m 54.206469,80.25632 c 0,0 0,3.5244 0,3.5244 0,0 -7.915887,0.4941 -7.915887,0.4941 0,0 0,10.1321 0,10.1321 0,0 -2.578152,0.067 -2.578152,0.067 0,0 0,-10.0377 0,-10.0377 0,0 -7.350345,0.4589 -7.350345,0.4589 0,0 0,-3.3034 0,-3.3034 0,0 7.350345,-0.5499 7.350345,-0.5499 0,0 0,-10.03767 0,-10.03767 0,0 2.578152,-0.28729 2.578152,-0.28729 0,0 0,10.13216 0,10.13216 0,0 7.915887,-0.5922 7.915887,-0.5922 0,0 0,0 0,0"
     style="font-style:normal;font-variant:normal;font-weight:normal;font-stretch:normal;font-size:medium;line-height:125%;font-family:FreeSans;-inkscape-font-specification:FreeSans;letter-spacing:0px;word-spacing:0px;opacity:0.7;fill:#ffffff;fill-opacity:1;stroke:#ffffff;stroke-width:5.09464025;stroke-linecap:round;stroke-linejoin:round;stroke-miterlimit:4;stroke-dasharray:none;stroke-opacity:1"
     id="path4807" />
  <path
     inkscape:connector-curvature="0"
     d="m 79.194845,78.38702 c 0,0 0,3.8338 0,3.8338 0,0 -9.344373,0.5833 -9.344373,0.5833 0,0 0,10.9951 0,10.9951 0,0 -3.033567,0.078 -3.033567,0.078 0,0 0,-10.8839 0,-10.8839 0,0 -8.622406,0.5382 -8.622406,0.5382 0,0 0,-3.5738 0,-3.5738 0,0 8.622406,-0.645 8.622406,-0.645 0,0 0,-10.88392 0,-10.88392 0,0 3.033567,-0.33805 3.033567,-0.33805 0,0 0,10.99507 0,10.99507 0,0 9.344373,-0.6991 9.344373,-0.6991 0,0 0,0 0,0"
     style="font-style:normal;font-variant:normal;font-weight:normal;font-stretch:normal;font-size:medium;line-height:125%;font-family:FreeSans;-inkscape-font-specification:FreeSans;letter-spacing:0px;word-spacing:0px;opacity:0.7;fill:#ffffff;fill-opacity:1;stroke:#ffffff;stroke-width:5.09464025;stroke-linecap:round;stroke-linejoin:round;stroke-miterlimit:4;stroke-dasharray:none;stroke-opacity:1"
     id="path4809" />
  <path
     inkscape:connector-curvature="0"
     style="opacity:0.7;fill:#ffffff;fill-opacity:1;stroke:none"
     d="m 74.380859,17.292969 -8.822265,2.439453 -2.488282,11.210937 -2.466796,-9.839843 -7.992188,2.208984 6.632813,23.339844 c 0.212015,0.74731 0.959449,1.209163 1.722656,1.064453 l 4.722656,-0.898438 c 0.56721,-0.10787 1.022173,-0.531693 1.169922,-1.089843 z m -23.560547,6.513672 -8.027343,2.220703 c 0.05388,0.29833 0.101562,0.709559 0.101562,1.220703 0,1.52756 -0.329764,2.398449 -0.529297,2.636719 l -0.01367,0.01758 c -0.31215,0.38396 -0.832144,0.724831 -1.742187,0.957031 l -3.765625,0.960937 v -4.148437 l -7.498047,2.072266 v 22.169921 c 5.76e-4,0.94085 0.857066,1.648957 1.78125,1.472657 l 4.496094,-0.853516 c 0.7084,-0.13431 1.221048,-0.753589 1.220703,-1.474609 v -10.89258 l 4.195312,-0.988282 c 0.774628,-0.18244 0.843083,-0.05543 0.845704,-0.05273 0.01025,0.0112 0.02067,0.0223 0.03125,0.0332 -0.03425,-0.0335 0.263671,0.465702 0.263672,1.607422 -10e-7,0.34398 -0.01037,0.756895 -0.03125,1.234375 -0.02326,0.53103 -0.03516,1.224589 -0.03516,2.099609 0,1.49488 0.03839,2.588338 0.142578,3.398438 0.0017,0.0163 0.0037,0.03263 0.0059,0.04883 0.130675,0.80767 0.377456,1.609084 0.726562,2.402344 0.281439,0.63891 0.966421,0.99921 1.652344,0.86914 l 5.351563,-1.015625 c 0.708399,-0.13431 1.221048,-0.753589 1.220703,-1.474609 v -1.189453 c -6.08e-4,-0.55214 -0.304462,-1.059313 -0.791016,-1.320313 -0.139012,-0.0747 -0.289061,-0.164072 -0.289063,-1.101562 v -0.01953 c -0.02245,-1.78387 -0.04567,-3.129309 -0.06836,-4.042969 -0.02358,-0.94959 -0.09555,-1.903215 -0.212891,-2.859375 -0.08899,-0.90758 -0.164919,-1.514012 -0.361328,-2.107422 -0.167985,-0.59213 -0.480703,-1.096171 -0.871093,-1.556641 -0.207326,-0.26175 -0.532966,-0.412503 -0.798829,-0.621093 1.982017,-2.24212 3.054688,-5.15291 3.054688,-8.53125 0,-0.403552 -0.023,-0.791646 -0.05469,-1.171875 z m -27.675781,7.652343 -7.046875,1.947266 v 21.023438 c -4.08e-4,0.94068 0.855048,1.649649 1.779297,1.474609 l 4.048828,-0.769531 c 0.706899,-0.135 1.218332,-0.752987 1.21875,-1.472657 z M 10.558594,34.9375 4.1875,36.699219 c -0.2302126,0.06363 -0.4450545,0.199575 -0.640625,0.384765 0.086557,0.111235 0.172811,0.203102 0.2597656,0.353516 l 0.00781,0.01172 c 0.6628705,1.12247 1.1152344,3.096983 1.1152344,5.876953 0,2.61981 -0.4276423,4.747507 -1.2050781,6.398437 l -0.00391,0.0098 c -0.3638987,0.78536 -0.7403216,1.31784 -1.1210875,1.693324 v 8.169922 c 2.7099106,-0.730362 4.9224908,-2.752783 6.4785156,-5.75 h -0.00195 c 1.70484,-3.28042 2.544922,-7.109175 2.544922,-11.390625 0,-2.90332 -0.342541,-5.403241 -1.0625,-7.519531 z"
     id="path5374" />
  <path
     inkscape:connector-curvature="0"
     style="fill:url(#radialGradient3897);fill-opacity:1;stroke:none"
     d="M 2.0754529,33.18253 C 0.92117319,33.52209 2.126e-4,35.24336 2.126e-4,37.04498 v 45.09644 c 0.50539547,0.3901 1.0227353,0.7798 1.5529329,1.1481 V 39.88413 c 0,-2.25311 1.1770858,-4.42613 2.6352778,-4.83968 L 84.275188,12.33761 c 2.662813,-0.75502 4.87038,1.15311 4.87038,4.25716 V 59.37454 C 90.2076,57.91033 91.210082,56.4141 92.140852,54.88876 V 11.2456 c 0,-2.52221 -1.787927,-4.02695 -3.981385,-3.38183 L 2.0754529,33.18253 v 0"
     id="path5385" />
  <path
     inkscape:connector-curvature="0"
     d="m 32.317619,81.847789 c 0,0 0,3.3996 0,3.3996 0,0 -7.635583,0.476604 -7.635583,0.476604 0,0 0,9.773319 0,9.773319 0,0 -2.486858,0.06463 -2.486858,0.06463 0,0 0,-9.682262 0,-9.682262 0,0 -7.090067,0.442651 -7.090067,0.442651 0,0 0,-3.186426 0,-3.186426 0,0 7.090067,-0.530428 7.090067,-0.530428 0,0 0,-9.682232 0,-9.682232 0,0 2.486858,-0.277117 2.486858,-0.277117 0,0 0,9.773376 0,9.773376 0,0 7.635583,-0.57123 7.635583,-0.57123 0,0 0,0 0,0"
     style="font-style:normal;font-variant:normal;font-weight:normal;font-stretch:normal;font-size:medium;line-height:125%;font-family:FreeSans;-inkscape-font-specification:FreeSans;letter-spacing:0px;word-spacing:0px;opacity:0.7;fill:#ffffff;fill-opacity:1;stroke:#ffffff;stroke-width:4.9142375;stroke-linecap:round;stroke-linejoin:round;stroke-miterlimit:4;stroke-dasharray:none;stroke-opacity:1"
     id="path4807-3" />
</svg>
